<svg xmlns="http://www.w3.org/2000/svg" viewBox="0 0 512 512" width="100%" height="100%">
  <!-- Background -->
  <rect width="512" height="512" rx="128" fill="#fff1f2" />
  
  <!-- Subtle Gradient Accent Orbs -->
  <circle cx="100" cy="100" r="180" fill="#ffe4e6" opacity="0.6" filter="blur(20px)" />
  <circle cx="412" cy="412" r="150" fill="#fecdd3" opacity="0.4" filter="blur(15px)" />
  
  <!-- Main Centered Heart -->
  <g transform="translate(256, 266) scale(14)">
    <path d="M12 4.248c-3.148-5.402-12-3.825-12 2.944 0 4.661 5.571 9.427 12 15.808 6.43-6.381 12-11.147 12-15.808 0-6.792-8.875-8.307-12-2.944z" fill="#f43f5e" />
    <!-- Heart Inner Soft Shimmer -->
    <path d="M11 5c-1.5-2.5-6-1.5-6 2 0 1 .5 2 1.5 3c.5-.8 1.5-1.5 2.5-1.5s1.5.5 2 .5" fill="#fbcfe8" opacity="0.75" />
    <!-- Cute little golden star -->
    <path d="M4.5,13.5 L4.8,14.2 L5.5,14.3 L5.0,14.8 L5.1,15.5 L4.5,15.1 L3.9,15.5 L4.0,14.8 L3.5,14.3 L4.2,14.2 Z" fill="#f59e0b" transform="translate(1, -2)" />
  </g>
</svg>
